<svg width="49" height="40" viewBox="0 0 49 40" fill="none" xmlns="http://www.w3.org/2000/svg">
<path d="M5.36565 21.1575H43.6854C44.489 21.1575 45.1422 21.843 45.0722 22.6484C44.2324 32.2381 35.3543 39.7841 24.5268 39.7841C13.6994 39.7841 4.82129 32.2381 3.98144 22.6484C3.90886 21.843 4.56208 21.1575 5.36565 21.1575Z" fill="#FF6633"/>
<path d="M31.4435 6.80845C31.8712 6.80845 32.2963 6.61556 32.5737 6.24542C33.9734 4.39475 36.633 3.24264 39.5128 3.24264C42.3927 3.24264 45.0523 4.39214 46.452 6.24542C46.9264 6.87361 47.8181 6.99351 48.4402 6.51651C49.0649 6.0395 49.1842 5.14284 48.7098 4.51726C46.7553 1.93153 43.3181 0.388428 39.5128 0.388428C35.7076 0.388428 32.2704 1.93153 30.3133 4.51726C29.8389 5.14544 29.9608 6.0395 30.5829 6.51651C30.8421 6.71461 31.1428 6.80845 31.4435 6.80845Z" fill="#414141"/>
<path d="M1.4735 6.80845C1.9012 6.80845 2.32632 6.61556 2.60368 6.24542C4.00344 4.39475 6.66299 3.24264 9.54287 3.24264C12.4228 3.24264 15.0823 4.39214 16.4821 6.24542C16.9564 6.87361 17.8481 6.99351 18.4702 6.51651C19.095 6.0395 19.2142 5.14284 18.7398 4.51726C16.7854 1.93153 13.3482 0.388428 9.54287 0.388428C5.73759 0.388428 2.3004 1.93153 0.343323 4.51726C-0.131042 5.14544 -0.00920868 6.0395 0.612907 6.51651C0.872124 6.71461 1.17281 6.80845 1.4735 6.80845Z" fill="#414141"/>
</svg>
