<svg width="30" height="30" viewBox="0 0 30 30" fill="none" xmlns="http://www.w3.org/2000/svg">
<path d="M3.47265 23.0891C3.47265 17.325 0.486816 13.3666 0.486816 10.5891C0.486816 7.81162 2.08348 1.97746 14.861 1.97746C27.6385 1.97746 29.5135 9.82496 29.5135 12.88C29.5143 27.1858 3.47265 33.2975 3.47265 23.0891Z" fill="#FCD5BA"/>
<path d="M13.0904 20.9341C12.9337 21.0908 12.722 21.1783 12.5012 21.1783C12.2804 21.1783 12.0679 21.0908 11.912 20.9341L6.91203 15.9341C6.5862 15.6083 6.58703 15.0808 6.91203 14.7558L8.09036 13.5775C8.4162 13.2516 8.9437 13.2516 9.2687 13.5775L12.5012 16.8091L20.7337 8.57746C21.0595 8.25163 21.587 8.25163 21.912 8.57746L23.0904 9.75579C23.4162 10.0816 23.4162 10.6091 23.0904 10.9341L13.0904 20.9341Z" fill="#FF6633"/>
<path d="M8.78588 15.9339C8.46005 15.6081 8.46088 15.0806 8.78588 14.7556L9.61588 13.9255L9.26755 13.5772C8.94171 13.2514 8.41421 13.2514 8.08921 13.5772L6.91088 14.7556C6.58505 15.0814 6.58505 15.6089 6.91088 15.9339L11.9109 20.9339C12.0675 21.0906 12.2792 21.1781 12.5 21.1781C12.7209 21.1781 12.9334 21.0906 13.0892 20.9339L13.4375 20.5856L8.78588 15.9339Z" fill="black" fill-opacity="0.1"/>
</svg>
