<svg width="24" height="24" viewBox="0 0 24 24" fill="#414141" xmlns="http://www.w3.org/2000/svg">
<path fill-rule="evenodd" clip-rule="evenodd" d="M11.9973 4.50002C11.3291 4.49845 10.663 4.57458 10.0124 4.72687C9.74352 4.7898 9.47453 4.62286 9.4116 4.35398C9.34866 4.08511 9.51561 3.81612 9.78448 3.75318C10.5104 3.58327 11.2535 3.49832 11.999 3.50003C15.6985 3.50025 18.5713 5.61335 20.4882 7.65805C21.4513 8.68532 22.188 9.71068 22.6841 10.4788C22.9324 10.8633 23.1212 11.1846 23.2487 11.4111C23.3124 11.5245 23.3608 11.6142 23.3937 11.6763C23.4102 11.7074 23.4228 11.7316 23.4314 11.7485L23.4415 11.7681L23.4443 11.7737L23.4452 11.7754C23.4453 11.7757 23.4457 11.7764 22.9984 12L22.5575 11.7643C22.5158 11.8424 22.4735 11.9201 22.4306 11.9975C22.4144 11.9681 22.3966 11.936 22.3771 11.9014C22.2584 11.6905 22.0801 11.3868 21.844 11.0213C21.3713 10.2894 20.6706 9.31473 19.7587 8.342C17.9257 6.38681 15.2987 4.50003 11.9984 4.50003L11.9973 4.50002ZM22.4306 11.9975C21.8668 13.0158 21.2055 13.9772 20.4559 14.8681C20.2781 15.0794 20.3052 15.3948 20.5165 15.5726C20.7278 15.7504 21.0432 15.7232 21.221 15.5119C22.0725 14.5001 22.816 13.402 23.4394 12.2357C23.5158 12.0927 23.5182 11.9215 23.4457 11.7764L22.9984 12C22.5512 12.2236 22.5513 12.2238 22.5513 12.2238L22.5495 12.2203L22.5421 12.2057C22.5352 12.1923 22.5244 12.1715 22.5099 12.144C22.4903 12.1071 22.4639 12.0578 22.4306 11.9975ZM6.45739 5.75657C6.62498 5.97605 6.58292 6.28982 6.36345 6.45741C4.39974 7.95692 2.76752 9.84509 1.56807 12.003C1.58423 12.0323 1.60198 12.0642 1.62133 12.0986C1.73999 12.3096 1.91836 12.6133 2.15439 12.9788C2.62709 13.7107 3.32783 14.6853 4.23977 15.6581C6.072 17.6124 8.69759 19.4985 11.9959 19.5C14.0369 19.4658 16.0134 18.7799 17.6369 17.5424C17.8565 17.375 18.1702 17.4173 18.3377 17.6369C18.5051 17.8565 18.4627 18.1703 18.2431 18.3377C16.4488 19.7054 14.264 20.4631 12.0082 20.5L12 20.5001C8.30025 20.5001 5.42724 18.3868 3.51023 16.342C2.54717 15.3147 1.81041 14.2894 1.31436 13.5213C1.06602 13.1368 0.877193 12.8155 0.749759 12.5889C0.686023 12.4756 0.637588 12.3859 0.604692 12.3237C0.588242 12.2926 0.575673 12.2684 0.567013 12.2516L0.556958 12.2319L0.554135 12.2263L0.553277 12.2246C0.553169 12.2244 0.552786 12.2236 1 12L0.552786 12.2236C0.480131 12.0783 0.482605 11.9068 0.559422 11.7636C1.83702 9.38269 3.60902 7.30251 5.75655 5.66264C5.97602 5.49505 6.2898 5.5371 6.45739 5.75657ZM10.2458 9.53916C10.4341 9.74119 10.4229 10.0576 10.2209 10.2458C9.55202 10.8691 9.2767 11.8077 9.50291 12.6935C9.72912 13.5792 10.4208 14.2709 11.3066 14.4971C12.1923 14.7233 13.131 14.448 13.7542 13.7792C13.9424 13.5771 14.2588 13.566 14.4609 13.7542C14.6629 13.9425 14.6741 14.2589 14.4858 14.4609C13.6133 15.3973 12.2992 15.7827 11.0591 15.466C9.81903 15.1493 8.8507 14.181 8.53401 12.9409C8.21731 11.7008 8.60276 10.3867 9.53914 9.51422C9.74117 9.32597 10.0576 9.33714 10.2458 9.53916Z"/>
<path fill-rule="evenodd" clip-rule="evenodd" d="M0.646447 0.646447C0.841709 0.451184 1.15829 0.451184 1.35355 0.646447L23.3536 22.6464C23.5488 22.8417 23.5488 23.1583 23.3536 23.3536C23.1583 23.5488 22.8417 23.5488 22.6464 23.3536L0.646447 1.35355C0.451184 1.15829 0.451184 0.841709 0.646447 0.646447Z"/>
</svg>
