<svg width="24" height="24" viewBox="0 0 24 24" fill="none" xmlns="http://www.w3.org/2000/svg">
<path fill-rule="evenodd" clip-rule="evenodd" d="M2.5 5C2.5 3.61929 3.61929 2.5 5 2.5H19C20.3807 2.5 21.5 3.61929 21.5 5V19C21.5 20.3807 20.3807 21.5 19 21.5H5C3.61929 21.5 2.5 20.3807 2.5 19V5ZM5 3.5C4.17157 3.5 3.5 4.17157 3.5 5V19C3.5 19.8284 4.17157 20.5 5 20.5H19C19.8284 20.5 20.5 19.8284 20.5 19V5C20.5 4.17157 19.8284 3.5 19 3.5H5Z" fill="#414141"/>
<path fill-rule="evenodd" clip-rule="evenodd" d="M8.64645 8.64645C8.84171 8.45118 9.15829 8.45118 9.35355 8.64645L15.3536 14.6464C15.5488 14.8417 15.5488 15.1583 15.3536 15.3536C15.1583 15.5488 14.8417 15.5488 14.6464 15.3536L8.64645 9.35355C8.45118 9.15829 8.45118 8.84171 8.64645 8.64645Z" fill="#414141"/>
<path fill-rule="evenodd" clip-rule="evenodd" d="M15.3536 8.64645C15.5488 8.84171 15.5488 9.15829 15.3536 9.35355L9.35355 15.3536C9.15829 15.5488 8.84171 15.5488 8.64645 15.3536C8.45118 15.1583 8.45118 14.8417 8.64645 14.6464L14.6464 8.64645C14.8417 8.45118 15.1583 8.45118 15.3536 8.64645Z" fill="#414141"/>
</svg>
