<svg width="126" height="126" viewBox="0 0 126 126" fill="none" xmlns="http://www.w3.org/2000/svg">
<path d="M24.5204 22.9965L10.4029 10.3381C10.1071 10.0728 9.63955 10.1084 9.39986 10.4302C6.54072 14.2426 7.31661 19.9571 11.3052 23.5334C15.2937 27.1097 21.0575 27.2614 24.5378 24.0036C24.8304 23.7292 24.8162 23.2617 24.5204 22.9965Z" fill="white"/>
<path d="M97.6124 109.398L111.73 122.056C112.026 122.322 112.493 122.286 112.733 121.964C115.592 118.152 114.816 112.437 110.828 108.861C106.839 105.285 101.075 105.133 97.5951 108.391C97.3024 108.665 97.3166 109.133 97.6124 109.398Z" fill="white"/>
<path d="M113.539 47.556L98.857 35.5569C98.5494 35.3055 98.0839 35.3624 97.8592 35.6949C95.1775 39.6341 96.2141 45.3071 100.362 48.6971C104.51 52.0872 110.275 51.9749 113.602 48.5612C113.882 48.2737 113.847 47.8074 113.539 47.556Z" fill="white"/>
<path d="M18.2978 89.2987L31.6521 75.8375C31.9319 75.5555 31.92 75.0867 31.6106 74.8311C27.9473 71.7833 22.201 72.27 18.4281 76.0731C14.6552 79.8763 14.213 85.625 17.2911 89.2652C17.5504 89.5713 18.018 89.5807 18.2978 89.2987Z" fill="white"/>
<path d="M15.4586 58.6614C12.6747 58.9571 9.9371 54.6696 9.34401 49.085C8.75091 43.5004 10.5269 38.7335 13.3108 38.4378C16.0948 38.1421 18.8324 42.4297 19.4255 48.0143C20.0186 53.5989 18.2426 58.3658 15.4586 58.6614Z" fill="white"/>
<path d="M108.287 68.2906C111.071 67.995 113.809 72.2825 114.402 77.8671C114.995 83.4517 113.219 88.2186 110.435 88.5143C107.651 88.8099 104.914 84.5224 104.321 78.9378C103.728 73.3532 105.504 68.5863 108.287 68.2906Z" fill="white"/>
<path d="M77.9296 15.4532C79.74 16.7545 78.5503 21.5062 75.2724 26.0663C71.9945 30.6264 67.8696 33.2682 66.0592 31.9669C64.2488 30.6655 65.4385 25.9139 68.7165 21.3537C71.9944 16.7936 76.1193 14.1518 77.9296 15.4532Z" fill="white"/>
<path d="M50.9882 92.9476C48.7718 92.7062 47.4678 87.9847 48.0758 82.4016C48.6838 76.8186 50.9734 72.4884 53.1899 72.7298C55.4063 72.9711 56.7103 77.6927 56.1023 83.2757C55.4943 88.8587 53.2047 93.189 50.9882 92.9476Z" fill="white"/>
<path fill-rule="evenodd" clip-rule="evenodd" d="M52.1667 45.3133C53.0941 46.6101 52.7939 48.4107 51.4961 49.335C48.5735 51.4165 44.6405 52.0345 40.9155 50.8242C37.1903 49.6138 34.3724 46.8017 33.2314 43.4008C32.7246 41.8902 33.5398 40.2569 35.0523 39.7528C36.5648 39.2486 38.2017 40.0645 38.7085 41.575C39.2469 43.1799 40.6516 44.6759 42.6972 45.3406C44.7434 46.0054 46.7591 45.6208 48.1376 44.6389C49.4354 43.7146 51.2393 44.0165 52.1667 45.3133Z" fill="white"/>
<path fill-rule="evenodd" clip-rule="evenodd" d="M73.2903 80.7996C72.3629 79.5028 72.6632 77.7022 73.961 76.7779C76.8835 74.6964 80.8165 74.0784 84.5416 75.2887C88.2667 76.4991 91.0846 79.3112 92.2256 82.7121C92.7325 84.2227 91.9172 85.856 90.4047 86.3601C88.8923 86.8643 87.2553 86.0484 86.7485 84.5379C86.2101 82.933 84.8054 81.437 82.7599 80.7723C80.7137 80.1075 78.698 80.4922 77.3194 81.474C76.0216 82.3983 74.2177 82.0964 73.2903 80.7996Z" fill="white"/>
<path fill-rule="evenodd" clip-rule="evenodd" d="M102.137 12.6122C101.882 11.0384 102.951 9.5586 104.524 9.30697C108.067 8.74031 111.865 9.93371 114.665 12.6728C117.465 15.4119 118.74 19.1831 118.252 22.7369C118.035 24.3154 116.579 25.4165 115 25.1964C113.421 24.9762 112.317 23.5181 112.534 21.9396C112.764 20.2627 112.17 18.2983 110.633 16.7942C109.095 15.2896 107.118 14.7388 105.447 15.0061C103.873 15.2578 102.391 14.186 102.137 12.6122Z" fill="white"/>
<path fill-rule="evenodd" clip-rule="evenodd" d="M57.348 113.026C58.4753 114.154 58.4739 115.979 57.345 117.104C54.8027 119.636 51.024 120.889 47.151 120.305C43.278 119.721 40.0376 117.408 38.3551 114.24C37.6078 112.833 38.1446 111.088 39.5541 110.343C40.9636 109.598 42.712 110.135 43.4594 111.542C44.2533 113.037 45.884 114.283 48.0108 114.604C50.1382 114.925 52.0637 114.215 53.2629 113.021C54.3918 111.897 56.2208 111.899 57.348 113.026Z" fill="white"/>
<path d="M40.3608 14.979C39.6092 13.8585 39.9083 12.3409 41.0288 11.5894L52.8975 3.62878C54.018 2.87724 55.5356 3.17633 56.2871 4.29682L58.6345 7.79656C59.386 8.91705 59.0869 10.4346 57.9664 11.1862L46.0978 19.1468C44.9773 19.8983 43.4597 19.5992 42.7081 18.4787L40.3608 14.979Z" fill="white"/>
<path d="M67.1773 101.745C66.8895 100.427 67.7248 99.1254 69.043 98.8376L83.0052 95.7893C84.3233 95.5015 85.6252 96.3368 85.913 97.6549L86.8118 101.772C87.0996 103.09 86.2644 104.392 84.9462 104.68L70.984 107.728C69.6658 108.016 68.364 107.181 68.0762 105.862L67.1773 101.745Z" fill="white"/>
<path d="M81.2488 62.5707C80.242 63.4688 78.6977 63.3806 77.7996 62.3738L68.2867 51.7089C67.3886 50.702 67.4767 49.1578 68.4836 48.2597L71.6283 45.4546C72.6352 44.5565 74.1794 44.6446 75.0775 45.6515L84.5905 56.3164C85.4886 57.3232 85.4005 58.8675 84.3936 59.7656L81.2488 62.5707Z" fill="white"/>
<path d="M14.8306 99.779C16.1603 99.5507 17.4233 100.444 17.6516 101.773L20.0694 115.858C20.2977 117.188 19.4048 118.451 18.075 118.679L13.9217 119.392C12.592 119.621 11.329 118.728 11.1007 117.398L8.68286 103.313C8.4546 101.983 9.34753 100.72 10.6773 100.492L14.8306 99.779Z" fill="white"/>
</svg>
