<svg width="183" height="183" viewBox="0 0 183 183" fill="none" xmlns="http://www.w3.org/2000/svg">
<path d="M35.6113 33.3996L15.1073 15.0148C14.6777 14.6296 13.9986 14.6812 13.6505 15.1487C9.49795 20.6857 10.6248 28.9853 16.4177 34.1794C22.2106 39.3736 30.5818 39.5939 35.6365 34.8623C36.0615 34.4638 36.0409 33.7848 35.6113 33.3996Z" fill="#FF6633"/>
<path d="M141.768 158.887L162.272 177.272C162.701 177.658 163.38 177.606 163.728 177.138C167.881 171.601 166.754 163.302 160.961 158.108C155.168 152.913 146.797 152.693 141.742 157.425C141.317 157.823 141.338 158.502 141.768 158.887Z" fill="#FF6633"/>
<path d="M164.902 69.0694L143.578 51.6421C143.132 51.277 142.456 51.3596 142.129 51.8426C138.235 57.5638 139.74 65.8031 145.765 70.7268C151.789 75.6504 160.162 75.4873 164.994 70.5294C165.401 70.1118 165.349 69.4345 164.902 69.0694Z" fill="#FF6633"/>
<path d="M26.5765 129.696L45.972 110.145C46.3783 109.735 46.3611 109.055 45.9117 108.683C40.5912 104.257 32.2453 104.964 26.7656 110.487C21.2859 116.011 20.6438 124.36 25.1143 129.647C25.4909 130.092 26.1701 130.105 26.5765 129.696Z" fill="#FF6633"/>
<path d="M22.4507 85.1988C18.4074 85.6282 14.4313 79.4011 13.5699 71.2901C12.7085 63.1791 15.288 56.2558 19.3313 55.8263C23.3746 55.3969 27.3507 61.6241 28.2121 69.735C29.0735 77.846 26.494 84.7694 22.4507 85.1988Z" fill="#FCA21C"/>
<path d="M157.272 99.184C161.315 98.7546 165.291 104.982 166.153 113.093C167.014 121.204 164.435 128.127 160.391 128.556C156.348 128.986 152.372 122.759 151.511 114.648C150.649 106.537 153.229 99.6134 157.272 99.184Z" fill="#FCA21C"/>
<path d="M113.181 22.4439C115.81 24.3339 114.082 31.2351 109.322 37.8582C104.561 44.4812 98.5699 48.3181 95.9406 46.4281C93.3112 44.538 95.0391 37.6368 99.7999 31.0138C104.561 24.3907 110.552 20.5538 113.181 22.4439Z" fill="#FCA21C"/>
<path d="M74.0556 134.995C70.8365 134.645 68.9427 127.787 69.8257 119.679C70.7087 111.57 74.0341 105.281 77.2533 105.631C80.4724 105.982 82.3662 112.839 81.4832 120.948C80.6002 129.057 77.2748 135.346 74.0556 134.995Z" fill="#FCA21C"/>
<path fill-rule="evenodd" clip-rule="evenodd" d="M75.7634 65.8122C77.1104 67.6956 76.6743 70.3107 74.7894 71.6532C70.5448 74.6764 64.8325 75.5739 59.4223 73.8161C54.012 72.0582 49.9193 67.9739 48.2621 63.0345C47.526 60.8406 48.7101 58.4684 50.9068 57.7362C53.1034 57.004 55.4809 58.1889 56.217 60.3828C56.999 62.7136 59.0392 64.8865 62.01 65.8518C64.9819 66.8174 67.9095 66.2587 69.9116 64.8328C71.7965 63.4903 74.4165 63.9288 75.7634 65.8122Z" fill="#70C05B"/>
<path fill-rule="evenodd" clip-rule="evenodd" d="M106.444 117.352C105.097 115.468 105.533 112.853 107.418 111.511C111.662 108.488 117.374 107.59 122.785 109.348C128.195 111.106 132.288 115.19 133.945 120.13C134.681 122.323 133.497 124.696 131.3 125.428C129.104 126.16 126.726 124.975 125.99 122.781C125.208 120.45 123.168 118.278 120.197 117.312C117.225 116.347 114.298 116.905 112.295 118.331C110.411 119.674 107.791 119.235 106.444 117.352Z" fill="#70C05B"/>
<path fill-rule="evenodd" clip-rule="evenodd" d="M148.34 18.3177C147.97 16.032 149.523 13.8827 151.808 13.5173C156.953 12.6943 162.47 14.4275 166.536 18.4057C170.602 22.3839 172.455 27.8612 171.746 33.0227C171.43 35.3152 169.316 36.9145 167.023 36.5948C164.729 36.275 163.126 34.1573 163.441 31.8647C163.775 29.4291 162.913 26.5761 160.68 24.3916C158.446 22.2064 155.575 21.4064 153.148 21.7946C150.863 22.1601 148.711 20.6034 148.34 18.3177Z" fill="#70C05B"/>
<path fill-rule="evenodd" clip-rule="evenodd" d="M83.2935 164.157C84.9307 165.795 84.9287 168.446 83.2891 170.079C79.5967 173.757 74.1086 175.577 68.4836 174.729C62.8585 173.881 58.1522 170.522 55.7086 165.92C54.6232 163.877 55.4028 161.343 57.45 160.261C59.4971 159.179 62.0365 159.958 63.1219 162.002C64.275 164.173 66.6434 165.983 69.7322 166.449C72.8221 166.915 75.6187 165.884 77.3603 164.149C79 162.516 81.6564 162.52 83.2935 164.157Z" fill="#70C05B"/>
<path d="M58.6209 21.7552C57.5294 20.1278 57.9638 17.9237 59.5912 16.8322L76.829 5.27039C78.4564 4.17886 80.6605 4.61326 81.752 6.24065L85.1613 11.3236C86.2528 12.951 85.8184 15.1551 84.191 16.2466L66.9532 27.8084C65.3258 28.9 63.1217 28.4656 62.0302 26.8382L58.6209 21.7552Z" fill="#1CB9FC"/>
<path d="M97.5693 147.773C97.1513 145.859 98.3645 143.968 100.279 143.55L120.557 139.123C122.472 138.705 124.363 139.918 124.781 141.832L126.086 147.812C126.504 149.726 125.291 151.617 123.376 152.035L103.098 156.462C101.184 156.88 99.2927 155.667 98.8748 153.753L97.5693 147.773Z" fill="#1CB9FC"/>
<path d="M118.003 90.8765C116.541 92.1809 114.298 92.0528 112.994 90.5905L99.1772 75.101C97.8728 73.6387 98.0009 71.3958 99.4632 70.0915L104.031 66.0174C105.493 64.713 107.736 64.841 109.04 66.3034L122.857 81.7928C124.161 83.2552 124.033 85.498 122.571 86.8024L118.003 90.8765Z" fill="#1CB9FC"/>
<path d="M21.5382 144.917C23.4695 144.586 25.3039 145.883 25.6354 147.814L29.1471 168.271C29.4786 170.202 28.1817 172.036 26.2505 172.368L20.2183 173.403C18.287 173.735 16.4526 172.438 16.1211 170.507L12.6094 150.05C12.2779 148.119 13.5748 146.284 15.5061 145.953L21.5382 144.917Z" fill="#1CB9FC"/>
</svg>
